<svg xmlns="http://www.w3.org/2000/svg" viewBox="0 0 512 512" width="512" height="512">
	<style>
		tspan { white-space:pre }
		.shp0 { fill: #ffffff } 
	</style>
	<g id="Layer">
		<path id="Layer" class="shp0" d="M169.32,86.57c0,-19.17 12.55,-34.77 27.98,-34.77c15.43,0 27.98,15.6 27.98,34.77c0,19.17 -12.55,34.77 -27.98,34.77c-15.43,0 -27.98,-15.6 -27.98,-34.77zM184.32,86.57c0,10.72 5.94,19.77 12.98,19.77c7.04,0 12.98,-9.05 12.98,-19.77c0,-10.72 -5.94,-19.77 -12.98,-19.77c-7.04,0 -12.98,9.06 -12.98,19.77z" />
		<path id="Layer" class="shp0" d="M158.58,126.8c0,19.17 -12.55,34.77 -27.98,34.77c-15.43,0 -27.98,-15.6 -27.98,-34.77c0,-19.17 12.55,-34.77 27.98,-34.77c15.43,0 27.98,15.6 27.98,34.77zM143.58,126.8c0,-10.72 -5.94,-19.77 -12.98,-19.77c-7.04,0 -12.98,9.05 -12.98,19.77c0,10.72 5.94,19.77 12.98,19.77c7.04,0 12.98,-9.06 12.98,-19.77z" />
		<path id="Layer" class="shp0" d="M271.54,121.34c-15.43,0 -27.98,-15.6 -27.98,-34.77c0,-19.17 12.55,-34.77 27.98,-34.77c15.43,0 27.98,15.6 27.98,34.77c0,19.17 -12.55,34.77 -27.98,34.77zM271.54,106.34c7.04,0 12.98,-9.05 12.98,-19.77c0,-10.72 -5.94,-19.77 -12.98,-19.77c-7.04,0 -12.98,9.05 -12.98,19.77c0,10.72 5.94,19.77 12.98,19.77z" />
		<path id="Layer" class="shp0" d="M338.24,161.57c-15.43,0 -27.98,-15.6 -27.98,-34.77c0,-19.17 12.55,-34.77 27.98,-34.77c15.43,0 27.98,15.6 27.98,34.77c0,19.17 -12.55,34.77 -27.98,34.77zM338.24,146.57c7.04,0 12.98,-9.06 12.98,-19.77c0,-10.72 -5.94,-19.77 -12.98,-19.77c-7.04,0 -12.98,9.05 -12.98,19.77c0,10.72 5.94,19.77 12.98,19.77z" />
		<path id="Layer" class="shp0" d="M171.67,166.01c11.35,0 16.5,-4.92 23.62,-11.74c8.14,-7.79 18.27,-17.49 39.12,-17.49c20.85,0 30.98,9.69 39.12,17.49c7.12,6.82 12.27,11.74 23.62,11.74c29.63,0 58.35,45.51 34.46,85.18c-24.17,40.13 -63.69,14.53 -97.21,14.53c-33.14,0 -73.01,25.65 -97.21,-14.53c-23.93,-39.73 4.88,-85.18 34.46,-85.18zM150.06,243.46c11.48,19.06 26.26,17.02 51.4,11.76c28.7,-6 37.21,-6 65.91,0c25.14,5.26 39.92,7.3 51.4,-11.76c17.89,-29.72 -3.87,-62.45 -21.61,-62.45c-17.37,0 -26.2,-8.45 -34,-15.9c-7.47,-7.15 -13.92,-13.32 -28.75,-13.32c-14.83,0 -21.28,6.18 -28.75,13.32c-7.79,7.45 -16.62,15.9 -34,15.9c-17.69,0 -39.53,32.69 -21.61,62.45z" />
		<path id="Layer" class="shp0" d="M333.03,325.49h-197.22c-4.14,0 -7.5,3.36 -7.5,7.5c0,4.14 3.36,7.5 7.5,7.5h197.22c4.14,0 7.5,-3.36 7.5,-7.5c0,-4.14 -3.36,-7.5 -7.5,-7.5z" />
		<path id="Layer" class="shp0" d="M333.03,379.04h-197.22c-4.14,0 -7.5,3.36 -7.5,7.5c0,4.14 3.36,7.5 7.5,7.5h197.22c4.14,0 7.5,-3.36 7.5,-7.5c0,-4.14 -3.36,-7.5 -7.5,-7.5z" />
		<path id="Layer" class="shp0" d="M53.2,203.59c-4.14,0 -7.5,3.36 -7.5,7.5v213.04c0,24.15 19.24,43.88 43.2,44.68c0.8,23.96 20.53,43.2 44.68,43.2h270.08c34.54,0 62.63,-28.1 62.63,-62.63v-343.57c0,-28.11 -18.89,-52.71 -45.55,-60.26c-7.46,-26.25 -31.63,-45.54 -60.24,-45.54h-270.08c-24.66,0 -44.72,20.06 -44.72,44.72v136.37c0,4.14 3.36,7.5 7.5,7.5c4.14,0 7.5,-3.36 7.5,-7.5v-136.37c0,-16.39 13.33,-29.72 29.72,-29.72h270.08c24.74,0 45.44,19.07 47.46,43.74c0.39,4.8 0.04,-6.73 0.17,219.23c0,4.14 3.36,7.5 7.5,7.5c4.14,0 7.5,-3.36 7.5,-7.5c0,-224.77 0,-215.21 0,-215.65c16.79,7.54 28.16,24.46 28.16,43.48v343.57c0,26.26 -21.37,47.63 -47.63,47.63h-270.08c-15.86,0 -28.86,-12.5 -29.68,-28.16h256.6c34.54,0 62.63,-28.1 62.63,-62.63v-98.24c0,-4.14 -3.36,-7.5 -7.5,-7.5c-4.14,0 -7.5,3.36 -7.5,7.5c-0.33,103.04 0.74,99.49 -0.97,107.83c-4.45,21.69 -23.68,38.05 -46.66,38.05c-14.68,0 -255.1,0 -270.08,0c-16.39,0 -29.72,-13.33 -29.72,-29.72v-213.03c0,-4.14 -3.36,-7.5 -7.5,-7.5z" />
	</g>
</svg>