<svg xmlns="http://www.w3.org/2000/svg" viewBox="0 0 512 512" width="512" height="512">
	<style>
		tspan { white-space:pre }
		.shp0 { fill: #ffffff } 
	</style>
	<g id="Layer">
		<g id="Layer">
			<path id="Layer" class="shp0" d="M258.53,71l-0.72,0c-0.01,0 -0.02,0 -0.03,0c-5.51,0 -9.99,4.46 -10,9.97c0,0.01 0,0.02 0,0.02c0,5.51 4.46,9.99 9.97,10l0.73,0c0.01,0 0.02,0 0.03,0c5.51,0 9.99,-4.46 10,-9.97c0,-0.01 0,-0.02 0,-0.02c0,-5.51 -4.46,-9.99 -9.97,-10z" />
		</g>
	</g>
	<g id="Layer">
		<g id="Layer">
			<path id="Layer" class="shp0" d="M501.39,133.11c-6.57,-24.97 -25.93,-44.63 -50.54,-51.31c-25.37,-6.91 -96.12,-9.46 -151,-10.37c-5.49,-0.08 -10.07,4.31 -10.17,9.83c-0.09,5.52 4.31,10.07 9.83,10.17c75.96,1.27 127.84,4.7 146.08,9.67c17.73,4.82 31.7,19.03 36.45,37.1c9.83,37.28 9.95,117 9.95,117.8c0,0.8 -0.12,80.52 -9.95,117.8c-4.75,18.07 -18.72,32.28 -36.45,37.1c-36.65,9.98 -188.07,10.1 -189.59,10.1c-1.53,0 -152.95,-0.12 -189.6,-10.1c-17.73,-4.82 -31.7,-19.03 -36.45,-37.1c-9.83,-37.28 -9.95,-117 -9.95,-117.8c0,-0.8 0.12,-80.52 9.95,-117.8c4.75,-18.07 18.72,-32.28 36.46,-37.1c18.65,-5.08 72.06,-8.54 150.4,-9.74c5.52,-0.08 9.93,-4.63 9.84,-10.15c-0.09,-5.52 -4.65,-9.89 -10.15,-9.84c-56.57,0.87 -129.44,3.39 -155.34,10.44c-24.61,6.69 -43.98,26.35 -50.55,51.31c-10.49,39.79 -10.61,119.52 -10.61,122.9c0,3.38 0.12,83.11 10.61,122.89c6.57,24.96 25.93,44.63 50.54,51.31c39.21,10.68 188.51,10.8 194.85,10.8c6.34,0 155.64,-0.12 194.84,-10.8c24.61,-6.69 43.98,-26.35 50.55,-51.31c10.49,-39.79 10.61,-119.52 10.61,-122.9c0,-3.38 -0.12,-83.11 -10.61,-122.89z" />
		</g>
	</g>
	<g id="Layer">
		<g id="Layer">
			<path id="Layer" class="shp0" d="M58,229.52c-5.52,0 -10,4.48 -10,10v81.5c0,5.52 4.48,10 10,10c5.52,0 10,-4.48 10,-10v-81.5c0,-5.52 -4.48,-10 -10,-10z" />
		</g>
	</g>
	<g id="Layer">
		<g id="Layer">
			<path id="Layer" class="shp0" d="M58,184.02c-5.52,0 -10,4.48 -10,10v0.12c0,5.52 4.48,10 10,10c5.52,0 10,-4.48 10,-10v-0.12c0,-5.52 -4.48,-10 -10,-10z" />
		</g>
	</g>
	<g id="Layer">
		<g id="Layer">
			<path id="Layer" class="shp0" d="M342.09,257.52c0,3.56 -1.9,6.86 -4.98,8.65l-124,72c-1.55,0.9 -3.29,1.35 -5.02,1.35c-1.72,0 -3.44,-0.44 -4.99,-1.33c-3.1,-1.78 -5.01,-5.09 -5.01,-8.67v-144c0,-3.58 1.91,-6.88 5.01,-8.67c3.1,-1.78 6.92,-1.78 10.01,0.02l124,72c3.08,1.79 4.98,5.08 4.98,8.65zM312.17,257.52l-94.08,-54.63v109.26z" />
		</g>
	</g>
	<g id="Layer">
	</g>
	<g id="Layer">
	</g>
	<g id="Layer">
	</g>
	<g id="Layer">
	</g>
	<g id="Layer">
	</g>
	<g id="Layer">
	</g>
	<g id="Layer">
	</g>
	<g id="Layer">
	</g>
	<g id="Layer">
	</g>
	<g id="Layer">
	</g>
	<g id="Layer">
	</g>
	<g id="Layer">
	</g>
	<g id="Layer">
	</g>
	<g id="Layer">
	</g>
	<g id="Layer">
	</g>
</svg>